# Blender v2.78 (sub 0) OBJ File: ''
# www.blender.org
o Cube
v 0.727551 -0.427763 -0.533951
v 0.685791 -0.683607 0.702961
v -0.826784 -0.490437 0.776364
v -0.581069 -0.472831 -0.691155
v 0.851689 0.788806 -0.623165
v 0.844898 0.945191 0.929534
v -0.666661 0.733537 0.918685
v -0.627659 0.765557 -0.640715
v 0.875283 -0.461569 0.047456
v 0.080316 -0.754727 -0.772788
v 0.860792 0.191654 -0.809562
v -0.160929 -0.784799 0.795875
v 0.960438 0.069541 1.100915
v -0.766354 -0.485600 -0.073999
v -0.798415 0.017517 0.879221
v -0.935493 0.233835 -0.744746
v 1.003969 0.974878 -0.047398
v 0.178818 0.949590 -0.821182
v -0.177035 0.850752 1.086395
v -0.734092 0.896723 0.069569
v -0.040286 0.050713 -0.908141
v -0.980011 0.025163 -0.002476
v -0.192392 -0.132583 1.128091
v 1.039064 -0.058672 -0.011021
v -0.075291 1.076439 0.031761
v 0.000132 -0.999612 0.000344
v 0.768711 -0.521534 0.379708
v -0.251490 -0.602632 -0.706335
v 0.847775 0.476072 -0.775780
v -0.504337 -0.643842 0.792686
v 0.959263 0.521483 1.148836
v -0.658114 -0.465110 -0.407245
v -0.795803 0.343072 0.907362
v -0.789986 0.514939 -0.694975
v 0.963665 0.950804 0.467150
v -0.211879 0.861640 -0.686112
v -0.396852 0.745321 1.007437
v -0.738388 0.861342 -0.337266
v 0.789027 -0.391291 -0.238804
v 0.406144 -0.631064 -0.654995
v 0.853110 -0.230463 -0.723658
v 0.312912 -0.799535 0.791333
v 0.840056 -0.339919 0.847849
v -0.797209 -0.470913 0.350469
v -0.780394 -0.223785 0.822390
v -0.761325 -0.108614 -0.686649
v 0.922095 0.880877 -0.309003
v 0.511977 0.850916 -0.789437
v 0.337423 1.075676 0.971525
v -0.691533 0.822760 0.483061
v -0.470351 0.145808 -0.807743
v 0.399372 0.112989 -0.939443
v -0.029720 0.486286 -1.042323
v 0.037348 -0.340984 -0.805538
v -0.968323 0.115059 -0.373157
v -0.958260 0.007844 0.479890
v -0.857547 -0.202312 -0.039117
v -0.849829 0.445815 0.022895
v -0.538019 -0.072713 1.012022
v 0.421452 -0.007711 1.081647
v -0.080464 -0.392400 0.897938
v -0.442775 0.173168 1.259788
v 1.067803 -0.169503 0.550888
v 0.932463 0.099756 -0.378994
v 0.937641 -0.230785 0.023728
v 1.094671 0.335339 -0.036629
v -0.133289 1.104147 0.513560
v 0.080550 0.984857 -0.367498
v 0.431647 1.133952 -0.044467
v -0.408757 0.971488 0.074132
v -0.382909 -0.742864 -0.037984
v 0.437641 -0.730785 0.023728
v 0.038274 -0.884333 -0.394126
v -0.080464 -0.892400 0.397938
v 0.398844 -0.811429 0.423926
v 0.430192 -0.738320 -0.360207
v -0.325485 -0.692746 -0.383727
v -0.393378 0.950782 -0.351426
v 0.491174 0.927267 -0.416167
v 0.396602 1.250030 0.423728
v 0.942285 0.462255 -0.411223
v 0.917144 -0.290943 -0.379451
v 0.911376 -0.335636 0.447886
v 0.304815 0.357072 1.225702
v 0.424075 -0.416123 0.913451
v -0.487400 -0.365773 0.925581
v -0.842814 0.421425 0.469516
v -0.915342 -0.294726 0.442707
v -0.824300 -0.188213 -0.385722
v 0.444907 -0.324473 -0.797151
v 0.423727 0.444889 -1.086705
v -0.402195 0.491145 -0.833725
v -0.368281 -0.224396 -0.751287
v -0.872418 0.481682 -0.390585
v -0.657887 0.232499 1.074604
v 1.143716 0.178959 0.588722
v -0.417452 0.891646 0.508724
v -0.441993 -0.746422 0.405755
vt 0.0000 0.0000
vt 0.0000 0.0000
vt 0.0000 0.0000
vt 0.0000 0.0000
vt 0.0000 0.0000
vt 0.0000 0.0000
vt 0.0000 0.0000
vt 0.0000 0.0000
vt 0.0000 0.0000
vt 0.0000 0.0000
vt 0.0000 0.0000
vt 0.0000 0.0000
vt 0.0000 0.0000
vt 0.0000 0.0000
vt 0.0000 0.0000
vt 0.0000 0.0000
vt 0.0000 0.0000
vt 0.0000 0.0000
vt 0.0000 0.0000
vt 0.0000 0.0000
vt 0.0000 0.0000
vt 0.0000 0.0000
vt 0.0000 0.0000
vt 0.0000 0.0000
vt 0.0000 0.0000
vt 0.0000 0.0000
vt 0.0000 0.0000
vt 0.0000 0.0000
vt 0.0000 0.0000
vt 0.0000 0.0000
vt 0.0000 0.0000
vt 0.0000 0.0000
vt 0.0000 0.0000
vt 0.0000 0.0000
vt 0.0000 0.0000
vt 0.0000 0.0000
vt 0.0000 0.0000
vt 0.0000 0.0000
vt 0.0000 0.0000
vt 0.0000 0.0000
vt 0.0000 0.0000
vt 0.0000 0.0000
vt 0.0000 0.0000
vt 0.0000 0.0000
vt 0.0000 0.0000
vt 0.0000 0.0000
vt 0.0000 0.0000
vt 0.0000 0.0000
vt 0.0000 0.0000
vt 0.0000 0.0000
vt 0.0000 0.0000
vt 0.0000 0.0000
vt 0.0000 0.0000
vt 0.0000 0.0000
vt 0.0000 0.0000
vt 0.0000 0.0000
vt 0.0000 0.0000
vt 0.0000 0.0000
vt 0.0000 0.0000
vt 0.0000 0.0000
vt 0.0000 0.0000
vt 0.0000 0.0000
vt 0.0000 0.0000
vt 0.0000 0.0000
vt 0.0000 0.0000
vt 0.0000 0.0000
vt 0.0000 0.0000
vt 0.0000 0.0000
vt 0.0000 0.0000
vt 0.0000 0.0000
vt 0.0000 0.0000
vt 0.0000 0.0000
vt 0.0000 0.0000
vt 0.0000 0.0000
vt 0.0000 0.0000
vt 0.0000 0.0000
vt 0.0000 0.0000
vt 0.0000 0.0000
vt 0.0000 0.0000
vt 0.0000 0.0000
vt 0.0000 0.0000
vt 0.0000 0.0000
vt 0.0000 0.0000
vt 0.0000 0.0000
vt 0.0000 0.0000
vt 0.0000 0.0000
vt 0.0000 0.0000
vt 0.0000 0.0000
vt 0.0000 0.0000
vt 0.0000 0.0000
vt 0.0000 0.0000
vt 0.0000 0.0000
vt 0.0000 0.0000
vt 0.0000 0.0000
vt 0.0000 0.0000
vt 0.0000 0.0000
vt 0.0000 0.0000
vt 0.0000 0.0000
vn -0.6197 -0.7776 0.1063
vn -0.1349 0.9493 0.2841
vn 0.9549 0.2484 0.1626
vn -0.6838 0.2059 0.7000
vn -0.8126 0.5607 -0.1588
vn -0.1844 -0.0792 -0.9797
vn -0.3371 -0.0043 -0.9415
vn -0.1251 -0.3947 -0.9103
vn 0.0358 -0.4241 -0.9049
vn -0.8696 -0.4010 -0.2881
vn -0.8769 -0.4415 -0.1899
vn -0.9356 0.3515 0.0339
vn -0.4499 -0.3233 0.8325
vn -0.0463 -0.3806 0.9236
vn -0.0186 0.2547 0.9668
vn 0.6867 -0.7178 0.1148
vn 0.8639 -0.5028 0.0311
vn 0.9331 0.1272 -0.3365
vn -0.2114 0.9377 0.2756
vn 0.0664 0.8765 -0.4768
vn -0.2527 0.9659 -0.0561
vn -0.5423 -0.8140 -0.2081
vn 0.3482 -0.9373 0.0116
vn 0.1625 -0.9842 0.0699
vn 0.5244 -0.8431 -0.1191
vn 0.5233 -0.8520 0.0141
vn 0.5807 -0.7776 -0.2409
vn 0.4216 -0.8713 -0.2514
vn 0.5895 -0.7425 -0.3182
vn 0.6951 -0.7189 0.0006
vn -0.3593 -0.8742 -0.3266
vn -0.4472 -0.8298 -0.3337
vn -0.4609 -0.8642 -0.2018
vn -0.0779 0.9647 -0.2517
vn -0.2606 0.9566 -0.1308
vn -0.2474 0.8945 -0.3724
vn 0.2442 0.8858 -0.3947
vn 0.1783 0.9328 -0.3133
vn 0.2949 0.9392 -0.1757
vn 0.4552 0.8812 0.1276
vn 0.2675 0.9613 0.0659
vn -0.1460 0.9576 -0.2483
vn 0.9296 -0.1530 -0.3352
vn 0.9841 -0.0420 -0.1728
vn 0.9633 0.1078 -0.2457
vn 0.8988 -0.2777 -0.3390
vn 0.5987 -0.8005 -0.0258
vn 0.9812 -0.0383 -0.1893
vn 0.8055 -0.5862 -0.0873
vn 0.7629 -0.6333 0.1304
vn 0.7572 -0.6434 -0.1122
vn 0.1370 -0.3256 0.9355
vn 0.0186 -0.3621 0.9320
vn -0.0105 0.4574 0.8892
vn 0.0014 -0.2520 0.9677
vn 0.3217 -0.3708 0.8712
vn 0.2106 -0.3711 0.9044
vn -0.2382 -0.4069 0.8818
vn -0.1036 -0.2304 0.9676
vn 0.0077 -0.6612 0.7502
vn -0.9615 0.2697 0.0530
vn -0.9279 -0.0247 0.3720
vn -0.9392 0.3061 0.1556
vn -0.9523 -0.2993 -0.0589
vn -0.8473 -0.5247 -0.0829
vn -0.9171 -0.1741 0.3585
vn -0.8743 -0.4299 -0.2256
vn -0.8285 -0.4740 -0.2982
vn -0.8826 -0.4585 -0.1033
vn -0.0320 -0.2592 -0.9653
vn 0.2965 -0.1956 -0.9348
vn 0.2806 -0.7520 -0.5964
vn 0.2369 0.5399 -0.8077
vn 0.4616 0.3844 -0.7995
vn 0.5810 0.1222 -0.8047
vn -0.1989 0.4492 -0.8710
vn -0.3812 0.5323 -0.7559
vn -0.4758 -0.2484 -0.8438
vn -0.1764 -0.2512 -0.9517
vn -0.2671 -0.2168 -0.9389
vn -0.1786 -0.1703 -0.9691
vn -0.9675 0.2529 -0.0047
vn -0.9552 0.2931 0.0410
vn -0.9434 0.3219 0.0795
vn -0.5201 -0.3628 0.7732
vn -0.3465 -0.5958 0.7245
vn -0.5433 0.3749 0.7512
vn 0.9303 -0.2334 0.2830
vn 0.9751 -0.2027 -0.0898
vn 0.9744 0.2241 -0.0204
vn -0.5757 0.7631 0.2936
vn -0.3095 0.9465 -0.0917
vn -0.2551 0.9519 0.1698
vn -0.5564 -0.8309 -0.0117
vn -0.5610 -0.8208 0.1076
vn -0.3655 -0.9145 0.1734
vn -0.4256 -0.9021 -0.0709
vn -0.2567 0.9439 0.2080
vn 0.9006 0.3651 0.2358
vn -0.3111 0.2774 0.9090
vn -0.8370 0.3541 -0.4172
vn -0.1040 -0.1490 -0.9834
vn -0.0902 0.2187 -0.9716
vn -0.0264 -0.2937 -0.9555
vn 0.3523 -0.0374 -0.9351
vn -0.8522 -0.4718 -0.2261
vn -0.9886 -0.1451 0.0394
vn -0.9624 0.2325 0.1406
vn -0.5047 -0.2334 0.8311
vn 0.1820 -0.6069 0.7736
vn 0.0659 0.3301 0.9416
vn 0.8121 -0.4604 0.3586
vn 0.9555 -0.0371 -0.2928
vn 0.9328 0.1266 -0.3374
vn -0.3029 0.8799 0.3661
vn -0.1492 0.9495 -0.2760
vn -0.2221 0.9716 -0.0821
vn -0.5288 -0.8192 -0.2221
vn 0.5212 -0.8314 -0.1926
vn -0.0276 -0.9664 0.2557
vn 0.1446 -0.9476 0.2848
vn 0.6063 -0.7889 -0.1002
vn 0.3178 -0.9423 0.1048
vn 0.3537 -0.8693 -0.3452
vn 0.7042 -0.7075 -0.0593
vn 0.5051 -0.7906 -0.3463
vn -0.5539 -0.8227 -0.1280
vn -0.4467 -0.8299 -0.3343
vn -0.5136 -0.8089 -0.2861
vn -0.3063 0.9502 -0.0573
vn -0.0785 0.9519 -0.2961
vn -0.2472 0.8945 -0.3725
vn 0.2055 0.8689 -0.4503
vn 0.2612 0.9484 -0.1794
vn 0.1331 0.9899 -0.0481
vn 0.2607 0.9115 0.3183
vn 0.4698 0.8644 -0.1791
vn -0.2783 0.9564 -0.0885
vn 0.9174 -0.0598 -0.3935
vn 0.9660 0.0736 -0.2477
vn 0.9631 0.1068 -0.2471
vn 0.6658 -0.7422 0.0769
vn 0.6916 -0.6784 -0.2479
vn 0.9831 -0.0535 -0.1751
vn 0.8764 -0.4572 0.1514
vn 0.9652 -0.2613 -0.0048
vn 0.8391 -0.5240 -0.1463
vn 0.1190 -0.3090 0.9436
vn 0.1418 -0.1040 0.9844
vn 0.1602 0.3227 0.9329
vn -0.0431 -0.2918 0.9555
vn 0.2200 -0.4611 0.8596
vn 0.0465 -0.5350 0.8435
vn -0.3713 -0.0948 0.9237
vn 0.0329 -0.4326 0.9010
vn -0.3510 -0.3202 0.8800
vn -0.9554 0.2938 0.0311
vn -0.9513 0.2693 0.1503
vn -0.9299 0.3463 0.1240
vn -0.8588 -0.4742 -0.1940
vn -0.9429 0.1097 0.3146
vn -0.9158 -0.1556 0.3703
vn -0.8283 -0.4739 -0.2987
vn -0.9505 -0.2933 -0.1031
vn -0.8977 -0.4209 -0.1304
vn 0.0320 -0.3061 -0.9514
vn 0.2320 -0.2790 -0.9319
vn 0.5369 -0.4098 -0.7374
vn -0.0466 0.4473 -0.8932
vn 0.5124 0.4320 -0.7422
vn 0.3110 -0.4044 -0.8601
vn -0.2911 0.3788 -0.8785
vn -0.4145 0.5125 -0.7520
vn -0.2329 -0.0272 -0.9721
vn -0.2174 -0.2055 -0.9542
vn -0.2074 -0.2861 -0.9355
vn -0.2398 -0.1013 -0.9655
vn -0.8600 0.4772 -0.1808
vn -0.9639 0.2557 0.0748
vn -0.9683 0.2497 -0.0115
vn -0.7857 -0.0470 0.6168
vn -0.6601 -0.3908 0.6416
vn -0.4706 0.3874 0.7928
vn 0.9432 -0.0326 0.3306
vn 0.9827 -0.1461 -0.1136
vn 0.9864 0.1413 0.0839
vn -0.4925 0.8294 0.2637
vn -0.5950 0.7926 0.1337
vn -0.2223 0.9555 0.1938
vn -0.6021 -0.7937 -0.0865
vn -0.3749 -0.9253 -0.0573
vn -0.3749 -0.9093 0.1807
s off
f 30/1/1 44/2/1 98/3/1
f 97/4/2 7/5/2 37/6/2
f 35/7/3 31/8/3 96/9/3
f 95/10/4 7/5/4 33/11/4
f 94/12/5 8/13/5 34/14/5
f 93/15/6 4/16/6 46/17/6
f 51/18/7 34/14/7 92/19/7
f 52/20/8 53/21/8 91/22/8
f 40/23/9 54/24/9 90/25/9
f 55/26/10 46/17/10 89/27/10
f 88/28/11 22/29/11 57/30/11
f 50/31/12 58/32/12 87/33/12
f 59/34/13 45/35/13 86/36/13
f 60/37/14 61/38/14 85/39/14
f 84/40/15 19/41/15 62/42/15
f 63/43/16 43/44/16 83/45/16
f 82/46/17 24/47/17 65/48/17
f 47/49/18 66/50/18 81/51/18
f 67/52/19 49/53/19 80/54/19
f 68/55/20 69/56/20 79/57/20
f 38/58/21 70/59/21 78/60/21
f 71/61/22 32/62/22 77/63/22
f 72/64/23 73/65/23 76/66/23
f 42/67/24 74/68/24 75/69/24
f 75/69/25 26/70/25 72/64/25
f 27/71/26 72/64/26 9/72/26
f 2/73/27 75/69/27 27/71/27
f 40/23/28 73/65/28 10/74/28
f 1/75/29 76/66/29 40/23/29
f 39/76/30 72/64/30 76/66/30
f 77/63/31 4/16/31 28/77/31
f 73/65/32 28/77/32 10/74/32
f 73/65/33 71/61/33 77/63/33
f 78/60/34 25/78/34 68/55/34
f 36/79/35 68/55/35 18/80/35
f 8/13/36 78/60/36 36/79/36
f 47/49/37 69/56/37 17/81/37
f 5/82/38 79/57/38 47/49/38
f 18/80/39 79/57/39 48/83/39
f 80/54/40 6/84/40 35/7/40
f 69/56/41 35/7/41 17/81/41
f 25/78/42 80/54/42 69/56/42
f 64/85/43 66/50/43 24/47/43
f 11/86/44 81/51/44 64/85/44
f 5/82/45 81/51/45 29/87/45
f 39/76/46 65/48/46 9/72/46
f 1/75/47 82/46/47 39/76/47
f 41/88/48 64/85/48 82/46/48
f 83/45/49 2/73/49 27/71/49
f 9/72/50 83/45/50 27/71/50
f 65/48/51 63/43/51 83/45/51
f 84/40/52 23/89/52 60/37/52
f 13/90/53 84/40/53 60/37/53
f 6/84/54 84/40/54 31/8/54
f 42/67/55 61/38/55 12/91/55
f 2/73/56 85/39/56 42/67/56
f 43/44/57 60/37/57 85/39/57
f 86/36/58 3/92/58 30/1/58
f 61/38/59 30/1/59 12/91/59
f 23/89/60 86/36/60 61/38/60
f 87/33/61 22/29/61 56/93/61
f 33/11/62 56/93/62 15/94/62
f 7/5/63 87/33/63 33/11/63
f 44/2/64 57/30/64 14/95/64
f 3/92/65 88/28/65 44/2/65
f 45/35/66 56/93/66 88/28/66
f 32/62/67 46/17/67 4/16/67
f 14/95/68 89/27/68 32/62/68
f 22/29/69 89/27/69 57/30/69
f 52/20/70 54/24/70 21/96/70
f 41/88/71 52/20/71 11/86/71
f 1/75/72 90/25/72 41/88/72
f 91/22/73 18/80/73 48/83/73
f 29/87/74 48/83/74 5/82/74
f 11/86/75 91/22/75 29/87/75
f 92/19/76 8/13/76 36/79/76
f 53/21/77 36/79/77 18/80/77
f 21/96/78 92/19/78 53/21/78
f 51/18/79 46/17/79 16/97/79
f 21/96/80 93/15/80 51/18/80
f 54/24/81 28/77/81 93/15/81
f 94/12/82 16/97/82 55/26/82
f 58/32/83 55/26/83 22/29/83
f 58/32/84 38/58/84 94/12/84
f 95/10/85 15/94/85 59/34/85
f 62/42/86 59/34/86 23/89/86
f 62/42/87 37/6/87 95/10/87
f 96/9/88 13/90/88 63/43/88
f 24/47/89 96/9/89 63/43/89
f 66/50/90 35/7/90 96/9/90
f 97/4/91 19/41/91 67/52/91
f 70/59/92 67/52/92 25/78/92
f 70/59/93 50/31/93 97/4/93
f 71/61/94 44/2/94 14/95/94
f 74/68/95 71/61/95 26/70/95
f 12/91/96 98/3/96 74/68/96
f 30/1/97 3/92/97 44/2/97
f 97/4/98 50/31/98 7/5/98
f 35/7/99 6/84/99 31/8/99
f 95/10/100 37/6/100 7/5/100
f 94/12/101 38/58/101 8/13/101
f 93/15/102 28/77/102 4/16/102
f 51/18/103 16/97/103 34/14/103
f 52/20/104 21/96/104 53/21/104
f 40/23/105 10/74/105 54/24/105
f 55/26/106 16/97/106 46/17/106
f 88/28/107 56/93/107 22/29/107
f 50/31/108 20/98/108 58/32/108
f 59/34/109 15/94/109 45/35/109
f 60/37/110 23/89/110 61/38/110
f 84/40/111 49/53/111 19/41/111
f 63/43/112 13/90/112 43/44/112
f 82/46/113 64/85/113 24/47/113
f 47/49/114 17/81/114 66/50/114
f 67/52/115 19/41/115 49/53/115
f 68/55/116 25/78/116 69/56/116
f 38/58/117 20/98/117 70/59/117
f 71/61/118 14/95/118 32/62/118
f 72/64/119 26/70/119 73/65/119
f 42/67/120 12/91/120 74/68/120
f 75/69/121 74/68/121 26/70/121
f 27/71/122 75/69/122 72/64/122
f 2/73/123 42/67/123 75/69/123
f 40/23/124 76/66/124 73/65/124
f 1/75/125 39/76/125 76/66/125
f 39/76/126 9/72/126 72/64/126
f 77/63/127 32/62/127 4/16/127
f 73/65/128 77/63/128 28/77/128
f 73/65/129 26/70/129 71/61/129
f 78/60/130 70/59/130 25/78/130
f 36/79/131 78/60/131 68/55/131
f 8/13/132 38/58/132 78/60/132
f 47/49/133 79/57/133 69/56/133
f 5/82/134 48/83/134 79/57/134
f 18/80/135 68/55/135 79/57/135
f 80/54/136 49/53/136 6/84/136
f 69/56/137 80/54/137 35/7/137
f 25/78/138 67/52/138 80/54/138
f 64/85/139 81/51/139 66/50/139
f 11/86/140 29/87/140 81/51/140
f 5/82/141 47/49/141 81/51/141
f 39/76/142 82/46/142 65/48/142
f 1/75/143 41/88/143 82/46/143
f 41/88/144 11/86/144 64/85/144
f 83/45/145 43/44/145 2/73/145
f 9/72/146 65/48/146 83/45/146
f 65/48/147 24/47/147 63/43/147
f 84/40/148 62/42/148 23/89/148
f 13/90/149 31/8/149 84/40/149
f 6/84/150 49/53/150 84/40/150
f 42/67/151 85/39/151 61/38/151
f 2/73/152 43/44/152 85/39/152
f 43/44/153 13/90/153 60/37/153
f 86/36/154 45/35/154 3/92/154
f 61/38/155 86/36/155 30/1/155
f 23/89/156 59/34/156 86/36/156
f 87/33/157 58/32/157 22/29/157
f 33/11/158 87/33/158 56/93/158
f 7/5/159 50/31/159 87/33/159
f 44/2/160 88/28/160 57/30/160
f 3/92/161 45/35/161 88/28/161
f 45/35/162 15/94/162 56/93/162
f 32/62/163 89/27/163 46/17/163
f 14/95/164 57/30/164 89/27/164
f 22/29/165 55/26/165 89/27/165
f 52/20/166 90/25/166 54/24/166
f 41/88/167 90/25/167 52/20/167
f 1/75/168 40/23/168 90/25/168
f 91/22/169 53/21/169 18/80/169
f 29/87/170 91/22/170 48/83/170
f 11/86/171 52/20/171 91/22/171
f 92/19/172 34/14/172 8/13/172
f 53/21/173 92/19/173 36/79/173
f 21/96/174 51/18/174 92/19/174
f 51/18/175 93/15/175 46/17/175
f 21/96/176 54/24/176 93/15/176
f 54/24/177 10/74/177 28/77/177
f 94/12/178 34/14/178 16/97/178
f 58/32/179 94/12/179 55/26/179
f 58/32/180 20/98/180 38/58/180
f 95/10/181 33/11/181 15/94/181
f 62/42/182 95/10/182 59/34/182
f 62/42/183 19/41/183 37/6/183
f 96/9/184 31/8/184 13/90/184
f 24/47/185 66/50/185 96/9/185
f 66/50/186 17/81/186 35/7/186
f 97/4/187 37/6/187 19/41/187
f 70/59/188 97/4/188 67/52/188
f 70/59/189 20/98/189 50/31/189
f 71/61/190 98/3/190 44/2/190
f 74/68/191 98/3/191 71/61/191
f 12/91/192 30/1/192 98/3/192
