# Blender v2.78 (sub 0) OBJ File: 'Star.blend'
# www.blender.org
mtllib Star.mtl
o Cube
v 0.511056 -0.511056 -0.511056
v 0.511056 -0.511056 0.511056
v -0.511056 -0.511056 0.511056
v -0.511056 -0.511056 -0.511056
v 0.511056 0.511056 -0.511056
v 0.511056 0.511056 0.511056
v -0.511056 0.511056 0.511056
v -0.511056 0.511056 -0.511056
vt 0.8602 -5.8602
vt -5.8602 0.8602
vt 0.8602 0.8602
vt -5.8602 0.8602
vt 0.8602 -5.8602
vt 0.8602 0.8602
vt 0.8602 6.8602
vt -5.8602 0.1398
vt 0.8602 0.1398
vt 0.8602 6.8602
vt -5.8602 0.1398
vt 0.8602 0.1398
vt 0.1398 6.8602
vt 6.8602 0.1398
vt 0.1398 0.1398
vt 0.8602 -5.8602
vt -5.8602 -5.8602
vt -5.8602 -5.8602
vt -5.8602 6.8602
vt -5.8602 6.8602
vt 6.8602 6.8602
vt -5.8602 -5.8602
vn 0.0000 -1.0000 0.0000
vn 0.0000 1.0000 0.0000
vn 1.0000 -0.0000 0.0000
vn -0.0000 -0.0000 1.0000
vn -1.0000 -0.0000 -0.0000
vn 0.0000 0.0000 -1.0000
usemtl Material
s off
f 2/1/1 4/2/1 1/3/1
f 8/4/2 6/5/2 5/6/2
f 5/7/3 2/8/3 1/9/3
f 6/10/4 3/11/4 2/12/4
f 7/13/5 4/14/5 3/15/5
f 1/16/6 8/4/6 5/6/6
f 2/1/1 3/17/1 4/2/1
f 8/4/2 7/18/2 6/5/2
f 5/7/3 6/19/3 2/8/3
f 6/10/4 7/20/4 3/11/4
f 7/13/5 8/21/5 4/14/5
f 1/16/6 4/22/6 8/4/6
