# Blender v2.79 (sub 0) OBJ File: 'Ship.blend'
# www.blender.org
mtllib Ship.mtl
o Cube
v -1.000000 -0.460789 1.000000
v -1.000000 -0.460789 -1.739524
v -1.000000 1.000000 1.000000
v -1.000000 0.630184 -1.260391
v -1.000000 -0.460789 -0.739524
v -1.000000 0.000000 1.000000
v -1.000000 0.000000 -1.739524
v -1.000000 1.000000 -0.739524
v -1.000000 0.000000 -0.739524
v -1.000000 -0.460789 2.482994
v -1.000001 -0.000000 2.482994
v -1.000001 1.000000 2.482994
v -1.881570 -0.000000 1.000000
v -1.881570 1.000000 0.999999
v -1.881571 -0.000000 2.482994
v -1.881571 1.000000 2.482994
v -2.516276 -0.000000 0.999999
v -2.516276 0.596117 0.999999
v -2.516276 -0.000000 2.482994
v -2.516276 0.596117 2.482994
v -3.152696 -0.000000 0.999999
v -3.152697 0.101607 0.999999
v -3.152697 -0.000000 2.482994
v -3.152697 0.101607 2.482994
v -1.000001 -0.000000 2.482994
v -1.000001 1.000000 2.482994
v -1.000000 -0.460789 2.776065
v -1.000001 -0.000000 2.776065
v -1.000001 -0.000000 2.776065
v -1.000001 1.000000 2.776065
v 1.000000 -0.460789 1.000000
v 1.000000 -0.460789 -1.739524
v 1.000000 1.000000 1.000000
v 1.000000 0.630184 -1.260391
v 0.000000 -0.460789 -1.739524
v 0.000000 -0.460789 1.000000
v 1.000000 -0.460789 -0.739524
v 1.000000 0.000000 1.000000
v 1.000000 0.000000 -1.739524
v 0.000000 0.630184 -1.260391
v 0.000000 1.000000 1.000000
v 1.000000 1.000000 -0.739524
v 0.000000 0.000000 -1.739524
v 1.000000 0.000000 -0.739524
v 0.000000 0.000000 1.000000
v 0.000000 1.000000 -0.739523
v 0.000000 -0.460789 -0.739524
v 0.000000 -0.460789 2.482994
v 1.000000 -0.460789 2.482994
v 1.000001 -0.000000 2.482994
v 1.000001 1.000000 2.482994
v 0.000000 1.000000 2.482994
v 0.000000 -0.000000 2.482994
v 1.881570 -0.000000 1.000000
v 1.881570 1.000000 0.999999
v 1.881571 -0.000000 2.482994
v 1.881571 1.000000 2.482994
v 2.516276 -0.000000 0.999999
v 2.516276 0.596117 0.999999
v 2.516276 -0.000000 2.482994
v 2.516276 0.596117 2.482994
v 3.152696 -0.000000 0.999999
v 3.152697 0.101607 0.999999
v 3.152697 -0.000000 2.482994
v 3.152697 0.101607 2.482994
v 1.000001 -0.000000 2.482994
v 1.000001 1.000000 2.482994
v 0.000000 1.000000 2.482994
v 0.000000 -0.000000 2.482994
v 0.000000 -0.460789 2.776065
v 1.000000 -0.460789 2.776065
v 1.000001 -0.000000 2.776065
v 0.000000 -0.000000 2.776065
v 1.000001 -0.000000 2.776065
v 1.000001 1.000000 2.776065
v 0.000000 1.000000 2.776065
v 0.000000 -0.000000 2.776065
vt 0.000000 0.000000
vt 0.000000 0.000000
vt 0.000000 0.000000
vt 0.000000 0.000000
vt 0.000000 0.000000
vt 0.000000 0.000000
vt 0.000000 0.000000
vt 0.000000 0.000000
vt 0.000000 0.000000
vt 0.000000 0.000000
vt 0.000000 0.000000
vt 0.000000 0.000000
vt 0.000000 0.000000
vt 0.000000 0.000000
vt 0.000000 0.000000
vt 0.000000 0.000000
vt 0.000000 0.000000
vt 0.000000 0.000000
vt 0.999920 0.638778
vt 0.000080 0.638778
vt 0.000080 0.000080
vt 0.999920 0.000080
vt 0.000000 0.000000
vt 0.000000 0.000000
vt 0.000000 0.000000
vt 0.000000 0.000000
vt 0.000000 0.000000
vt 0.000000 0.000000
vt 0.000000 0.000000
vt 0.000000 0.000000
vt 0.000000 0.000000
vt 0.000000 0.000000
vt 0.000000 0.000000
vt 0.000000 0.000000
vt 0.000000 0.000000
vt 0.000000 0.000000
vt 0.000000 0.000000
vt 0.000000 0.000000
vt 0.000000 0.000000
vt 0.000000 0.000000
vt 0.000000 0.000000
vt 0.000000 0.000000
vt 0.000000 0.000000
vt 0.000000 0.000000
vt 0.000000 0.000000
vt 0.000000 0.000000
vt 0.000000 0.000000
vt 0.000000 0.000000
vt 0.000000 0.000000
vt 0.000000 0.000000
vt 0.000000 0.000000
vt 0.000000 0.000000
vt 0.000000 0.000000
vt 0.000000 0.000000
vt 0.000000 0.000000
vt 0.000000 0.000000
vt 0.000000 0.000000
vt 0.000000 0.000000
vt 0.000000 0.000000
vt 0.000000 0.000000
vt 0.000000 0.000000
vt 0.000080 0.000080
vt 0.000080 0.638778
vt 0.000000 0.000000
vt 0.000000 0.000000
vt 0.000000 0.000000
vt 0.000000 0.000000
vt 0.000000 0.000000
vt 0.000000 0.000000
vt 0.000000 0.000000
vt 0.000000 0.000000
vt 0.000000 0.000000
vt 0.000000 0.000000
vt 0.000000 0.000000
vt 0.000000 0.000000
vt 0.000000 0.000000
vt 0.000000 0.000000
vt 0.000000 0.000000
vt 0.000000 0.000000
vt 0.000000 0.000000
vt 0.000000 0.000000
vt 0.000000 0.000000
vt 0.000000 0.000000
vn 0.0000 -1.0000 -0.0000
vn 0.0000 1.0000 0.0000
vn -1.0000 -0.0000 -0.0000
vn 0.0000 0.0000 -1.0000
vn 0.0000 0.6052 -0.7960
vn 0.0000 0.8154 -0.5789
vn 0.0000 0.0000 1.0000
vn -0.5369 0.8437 -0.0000
vn -0.6136 0.7896 -0.0000
vn 1.0000 -0.0000 -0.0000
vn 0.5369 0.8437 -0.0000
vn 0.6136 0.7896 -0.0000
usemtl Material
s off
f 47/1/1 36/2/1 1/3/1 5/4/1
f 46/5/2 8/6/2 3/7/2 41/8/2
f 6/9/3 1/3/3 10/10/3 11/11/3
f 9/12/3 8/6/3 4/13/3 7/14/3
f 43/15/4 35/16/4 2/17/4 7/14/4
f 40/18/5 43/15/5 7/14/5 4/13/5
f 5/4/3 9/12/3 7/14/3 2/17/3
f 1/3/3 6/9/3 9/12/3 5/4/3
f 6/9/3 3/7/3 8/6/3 9/12/3
f 40/19/6 4/20/6 8/21/6 46/22/6
f 35/16/1 47/1/1 5/4/1 2/17/1
f 12/23/7 11/11/7 25/24/7 26/25/7
f 11/11/3 10/10/3 27/26/3 28/27/3
f 6/9/1 11/11/1 15/28/1 13/29/1
f 1/3/1 36/2/1 48/30/1 10/10/1
f 41/8/2 3/7/2 12/23/2 52/31/2
f 13/29/1 15/28/1 19/32/1 17/33/1
f 11/11/7 12/23/7 16/34/7 15/28/7
f 12/23/2 3/7/2 14/35/2 16/34/2
f 3/7/4 6/9/4 13/29/4 14/35/4
f 18/36/4 17/33/4 21/37/4 22/38/4
f 14/35/4 13/29/4 17/33/4 18/36/4
f 16/34/8 14/35/8 18/36/8 20/39/8
f 15/28/7 16/34/7 20/39/7 19/32/7
f 22/38/3 21/37/3 23/40/3 24/41/3
f 20/39/9 18/36/9 22/38/9 24/41/9
f 19/32/7 20/39/7 24/41/7 23/40/7
f 17/33/1 19/32/1 23/40/1 21/37/1
f 25/24/7 11/11/7 28/27/7 29/42/7
f 52/31/7 12/23/7 26/25/7 68/43/7
f 70/44/7 73/45/7 28/27/7 27/26/7
f 77/46/7 76/47/7 30/48/7 29/42/7
f 28/27/7 73/45/7 77/46/7 29/42/7
f 26/25/3 25/24/3 29/42/3 30/48/3
f 68/43/2 26/25/2 30/48/2 76/47/2
f 10/10/1 48/30/1 70/44/1 27/26/1
f 47/1/1 37/49/1 31/50/1 36/2/1
f 46/5/2 41/8/2 33/51/2 42/52/2
f 38/53/10 50/54/10 49/55/10 31/50/10
f 44/56/10 39/57/10 34/58/10 42/52/10
f 43/15/4 39/57/4 32/59/4 35/16/4
f 40/18/5 34/58/5 39/57/5 43/15/5
f 37/49/10 32/59/10 39/57/10 44/56/10
f 31/50/10 37/49/10 44/56/10 38/53/10
f 38/53/10 44/56/10 42/52/10 33/51/10
f 36/2/3 48/30/3 53/60/3 45/61/3
f 40/19/6 46/22/6 42/62/6 34/63/6
f 35/16/1 32/59/1 37/49/1 47/1/1
f 51/64/7 67/65/7 66/66/7 50/54/7
f 50/54/10 72/67/10 71/68/10 49/55/10
f 38/53/1 54/69/1 56/70/1 50/54/1
f 31/50/1 49/55/1 48/30/1 36/2/1
f 45/61/3 53/60/3 52/31/3 41/8/3
f 41/8/2 52/31/2 51/64/2 33/51/2
f 54/69/1 58/71/1 60/72/1 56/70/1
f 50/54/7 56/70/7 57/73/7 51/64/7
f 51/64/2 57/73/2 55/74/2 33/51/2
f 33/51/4 55/74/4 54/69/4 38/53/4
f 59/75/4 63/76/4 62/77/4 58/71/4
f 55/74/4 59/75/4 58/71/4 54/69/4
f 57/73/11 61/78/11 59/75/11 55/74/11
f 56/70/7 60/72/7 61/78/7 57/73/7
f 63/76/10 65/79/10 64/80/10 62/77/10
f 61/78/12 65/79/12 63/76/12 59/75/12
f 60/72/7 64/80/7 65/79/7 61/78/7
f 58/71/1 62/77/1 64/80/1 60/72/1
f 48/30/3 70/44/3 73/45/3 53/60/3
f 53/60/7 69/81/7 68/43/7 52/31/7
f 66/66/7 74/82/7 72/67/7 50/54/7
f 52/31/7 68/43/7 67/65/7 51/64/7
f 70/44/7 71/68/7 72/67/7 73/45/7
f 77/46/7 74/82/7 75/83/7 76/47/7
f 72/67/7 74/82/7 77/46/7 73/45/7
f 67/65/10 75/83/10 74/82/10 66/66/10
f 53/60/7 73/45/7 77/46/7 69/81/7
f 69/81/3 77/46/3 76/47/3 68/43/3
f 68/43/2 76/47/2 75/83/2 67/65/2
f 49/55/1 71/68/1 70/44/1 48/30/1
