# Blender v2.79 (sub 0) OBJ File: 'Ship.blend'
# www.blender.org
mtllib Ship.mtl
o Cube
v -1.274563 -0.460789 0.519870
v -0.439173 -0.460789 -2.351373
v -1.275866 1.000000 0.475442
v -0.557719 0.187332 -1.973231
v -1.027532 -0.460789 -0.739524
v -1.327621 0.000000 0.475442
v -0.439173 0.000000 -2.351373
v -0.900070 0.932686 -0.775295
v -1.012512 0.000000 -0.739524
v -1.298248 -0.460789 2.609975
v -1.373760 -0.000000 2.637833
v -1.182631 1.000000 2.637833
v -1.594263 0.436815 0.777934
v -1.367211 1.000000 0.777934
v -1.594263 0.436815 2.482994
v -1.367211 1.000000 2.482994
v -2.516276 0.291150 0.999999
v -2.516276 0.596117 0.999999
v -2.516276 0.291149 2.482994
v -2.516276 0.596117 2.482994
v -3.152696 -0.000000 0.999999
v -3.152697 0.101607 0.999999
v -3.152697 -0.000000 2.482994
v -3.152697 0.101607 2.482994
v -0.834062 -0.185292 3.084433
v -0.834062 0.174278 3.450976
v -0.608646 0.371420 3.760431
v -0.608646 0.797686 3.760431
v -0.227655 0.797686 3.760431
v -0.227655 0.371420 3.760431
v -0.716823 0.000000 -2.079357
v -0.716823 -0.460789 -2.081832
v -0.617823 0.177102 -2.076815
v -0.077499 0.187332 -1.973230
v -1.000000 1.000000 -0.739524
v -0.077500 0.932686 -0.775294
v -0.834062 0.174278 3.450976
v -0.834062 1.000000 3.450976
v -0.658965 0.321102 3.625772
v -0.658965 0.848004 3.625772
v -0.177337 0.848004 3.625772
v -0.177337 0.321102 3.625772
v 1.274563 -0.460789 0.519870
v 0.439173 -0.460789 -2.351373
v 1.275866 1.000000 0.475442
v 0.557719 0.187332 -1.973231
v 0.000000 -0.460789 -2.351373
v 0.000000 -0.460789 0.519870
v 1.027532 -0.460789 -0.739524
v 1.327621 0.000000 0.475442
v 0.439173 0.000000 -2.351373
v 0.000000 0.177102 -2.076815
v 0.000000 1.000000 0.504401
v 0.900070 0.932686 -0.775295
v 0.000000 0.000000 -2.351373
v 1.012512 0.000000 -0.739524
v 0.000000 0.000000 0.504401
v 0.000000 1.000000 -0.739523
v 0.000000 -0.460789 -0.739524
v 0.000000 -0.460789 2.642719
v 1.298248 -0.460789 2.609975
v 1.373760 -0.000000 2.637833
v 1.182631 1.000000 2.637833
v 0.000000 1.000000 2.690091
v 0.000000 -0.000000 2.679862
v 1.594263 0.436815 0.777934
v 1.367211 1.000000 0.777934
v 1.594263 0.436815 2.482994
v 1.367211 1.000000 2.482994
v 2.516276 0.291150 0.999999
v 2.516276 0.596117 0.999999
v 2.516276 0.291149 2.482994
v 2.516276 0.596117 2.482994
v 3.152696 -0.000000 0.999999
v 3.152697 0.101607 0.999999
v 3.152697 -0.000000 2.482994
v 3.152697 0.101607 2.482994
v 0.000000 -0.185292 3.084433
v 0.834062 -0.185292 3.084433
v 0.834062 0.174278 3.450976
v 0.000000 0.174278 3.450976
v 0.608646 0.371420 3.760431
v 0.608646 0.797686 3.760431
v 0.227655 0.797686 3.760431
v 0.227655 0.371420 3.760431
v 0.716823 0.000000 -2.079357
v 0.716823 -0.460789 -2.081832
v 0.617823 0.177102 -2.076815
v 0.077499 0.187332 -1.973230
v 1.000000 1.000000 -0.739524
v 0.077500 0.932686 -0.775294
v 0.834062 0.174278 3.450976
v 0.834062 1.000000 3.450976
v 0.000000 1.000000 3.450976
v 0.000000 0.174278 3.450976
v 0.658965 0.321102 3.625772
v 0.658965 0.848004 3.625772
v 0.177337 0.848004 3.625772
v 0.177337 0.321102 3.625772
vt 0.000000 0.000000
vt 0.000000 0.000000
vt 0.000000 0.000000
vt 0.000000 0.000000
vt 0.000000 0.000000
vt 0.000000 0.000000
vt 0.000000 0.000000
vt 0.000000 0.000000
vt 0.000000 0.000000
vt 0.000000 0.000000
vt 0.000000 0.000000
vt 0.000000 0.000000
vt 0.000000 0.000000
vt 0.000000 0.000000
vt 0.000000 0.000000
vt 0.000000 0.000000
vt 0.000000 0.000000
vt 0.000000 0.000000
vt 0.000000 0.000000
vt 0.000000 0.000000
vt 0.000000 0.000000
vt 0.000000 0.000000
vt 0.000000 0.000000
vt 0.000000 0.000000
vt 0.000000 0.000000
vt 0.000000 0.000000
vt 0.000000 0.000000
vt 0.000000 0.000000
vt 0.000000 0.000000
vt 0.000000 0.000000
vt 0.000000 0.000000
vt 0.000000 0.000000
vt 0.000000 0.000000
vt 0.000000 0.000000
vt 0.000000 0.000000
vt 0.000000 0.000000
vt 0.000000 0.000000
vt 0.000000 0.000000
vt 0.000000 0.000000
vt 0.000000 0.000000
vt 0.000000 0.000000
vt 0.000000 0.000000
vt 0.000000 0.000000
vt 0.000000 0.000000
vt 0.000000 0.000000
vt 0.000000 0.000000
vt 0.000000 0.000000
vt 0.000000 0.000000
vt 0.000000 0.000000
vt 0.000000 0.000000
vt 0.000000 0.000000
vt 0.000000 0.000000
vt 0.000000 0.000000
vt 0.000000 0.000000
vt 0.000000 0.000000
vt 0.000000 0.000000
vt 0.000000 0.000000
vt 0.000000 0.000000
vt 0.000000 0.000000
vt 0.000000 0.000000
vt 0.000000 0.000000
vt 0.000000 0.000000
vt 0.000000 0.000000
vt 0.000000 0.000000
vt 0.000000 0.000000
vt 0.000000 0.000000
vt 0.000000 0.000000
vt 0.000000 0.000000
vt 0.000000 0.000000
vt 0.000000 0.000000
vt 0.000000 0.000000
vt 0.000000 0.000000
vt 0.000000 0.000000
vt 0.000000 0.000000
vt 0.000000 0.000000
vt 0.000000 0.000000
vt 0.000000 0.000000
vt 0.000000 0.000000
vt 0.000000 0.000000
vt 0.000000 0.000000
vt 0.000000 0.000000
vt 0.000000 0.000000
vt 0.000000 0.000000
vt 0.000000 0.000000
vt 0.000000 0.000000
vt 0.000000 0.000000
vt 0.000000 0.000000
vt 0.000000 0.000000
vt 0.000000 0.000000
vt 0.000000 0.000000
vt 0.000000 0.000000
vt 0.000000 0.000000
vt 0.000000 0.000000
vt 0.000000 0.000000
vt 0.000000 0.000000
vt 0.000000 0.000000
vt 0.000000 0.000000
vt 0.000000 0.000000
vt 0.000000 0.000000
vn 0.0000 -1.0000 0.0000
vn 0.0000 1.0000 0.0000
vn -0.9902 -0.1384 -0.0163
vn 0.0000 0.0000 -1.0000
vn 0.0000 0.8403 -0.5421
vn -0.9407 0.0137 -0.3390
vn -0.9739 -0.0509 -0.2213
vn -0.9712 0.0312 -0.2362
vn 0.0000 0.8491 -0.5283
vn -0.6642 -0.3727 0.6480
vn -0.8741 -0.4856 -0.0104
vn 0.1561 -0.9877 0.0000
vn -0.5056 0.1353 0.8521
vn -0.8030 0.1432 -0.5785
vn -0.2242 0.0586 -0.9728
vn -0.3316 0.9434 -0.0000
vn 0.0000 0.0000 1.0000
vn -1.0000 0.0000 -0.0000
vn -0.6136 0.7896 -0.0000
vn 0.4160 -0.9094 0.0000
vn 0.0000 -0.7139 0.7003
vn -0.8780 0.0919 0.4697
vn -0.0080 -0.8551 0.5183
vn -0.6494 0.3726 -0.6629
vn -0.9583 0.0914 -0.2707
vn 0.0000 0.9952 -0.0983
vn -0.4774 0.7473 -0.4622
vn 0.0000 0.4693 -0.8831
vn 0.4481 0.8119 -0.3742
vn -0.7065 0.0000 0.7077
vn -0.0000 0.7546 0.6562
vn 0.0000 -0.7657 0.6432
vn 0.7020 -0.0000 0.7122
vn -0.9367 0.0000 0.3500
vn -0.0000 0.9367 0.3500
vn 0.0000 -0.9367 0.3500
vn 0.9367 0.0000 0.3500
vn 0.9902 -0.1384 -0.0163
vn 0.9407 0.0137 -0.3390
vn 0.9739 -0.0509 -0.2213
vn 0.9712 0.0312 -0.2362
vn 0.6642 -0.3727 0.6480
vn 0.8741 -0.4856 -0.0104
vn -0.1561 -0.9877 0.0000
vn 0.5056 0.1353 0.8521
vn 0.8030 0.1432 -0.5785
vn 0.2242 0.0586 -0.9728
vn 0.3316 0.9434 -0.0000
vn 1.0000 0.0000 -0.0000
vn 0.6136 0.7896 -0.0000
vn -0.4160 -0.9094 0.0000
vn 0.8780 0.0919 0.4697
vn 0.0080 -0.8551 0.5183
vn 0.6494 0.3726 -0.6629
vn 0.9583 0.0914 -0.2707
vn 0.4774 0.7473 -0.4622
vn -0.4481 0.8119 -0.3742
vn 0.7065 0.0000 0.7077
vn -0.7020 -0.0000 0.7122
usemtl Material
s off
f 59/1/1 48/2/1 1/3/1 5/4/1
f 58/5/2 35/6/2 3/7/2 53/8/2
f 6/9/3 1/3/3 10/10/3 11/11/3
f 55/12/4 47/13/4 2/14/4 7/15/4
f 52/16/5 55/12/5 7/15/5 33/17/5
f 5/4/6 9/18/6 31/19/6 7/15/6 2/14/6 32/20/6
f 1/3/7 6/9/7 9/18/7 5/4/7
f 6/9/8 3/7/8 35/6/8 9/18/8
f 34/21/9 4/22/9 8/23/9 36/24/9
f 47/13/1 59/1/1 5/4/1 32/20/1 2/14/1
f 11/11/10 10/10/10 25/25/10 26/26/10
f 6/9/11 11/11/11 15/27/11 13/28/11
f 1/3/1 48/2/1 60/29/1 10/10/1
f 53/8/2 3/7/2 12/30/2 64/31/2
f 13/28/12 15/27/12 19/32/12 17/33/12
f 11/11/13 12/30/13 16/34/13 15/27/13
f 12/30/2 3/7/2 14/35/2 16/34/2
f 3/7/14 6/9/14 13/28/14 14/35/14
f 18/36/4 17/33/4 21/37/4 22/38/4
f 14/35/15 13/28/15 17/33/15 18/36/15
f 16/34/16 14/35/16 18/36/16 20/39/16
f 15/27/17 16/34/17 20/39/17 19/32/17
f 22/38/18 21/37/18 23/40/18 24/41/18
f 20/39/19 18/36/19 22/38/19 24/41/19
f 19/32/17 20/39/17 24/41/17 23/40/17
f 17/33/20 19/32/20 23/40/20 21/37/20
f 11/11/17 26/26/17 37/42/17
f 78/43/21 81/44/21 26/26/21 25/25/21
f 30/45/17 29/46/17 28/47/17 27/48/17
f 26/26/17 81/44/17 95/49/17 37/42/17
f 12/30/22 11/11/22 37/42/22 38/50/22
f 64/31/2 12/30/2 38/50/2 94/51/2
f 10/10/23 60/29/23 78/43/23 25/25/23
f 7/15/24 31/19/24 33/17/24
f 35/6/25 33/17/25 31/19/25 9/18/25
f 4/22/26 34/21/26 52/16/26 33/17/26
f 34/21/27 36/24/27 58/5/27 52/16/27
f 36/24/28 8/23/28 35/6/28 58/5/28
f 8/23/29 4/22/29 33/17/29 35/6/29
f 39/52/30 40/53/30 38/50/30 37/42/30
f 40/53/31 41/54/31 94/51/31 38/50/31
f 42/55/32 39/52/32 37/42/32 95/49/32
f 41/54/33 42/55/33 95/49/33 94/51/33
f 27/48/34 28/47/34 40/53/34 39/52/34
f 28/47/35 29/46/35 41/54/35 40/53/35
f 30/45/36 27/48/36 39/52/36 42/55/36
f 29/46/37 30/45/37 42/55/37 41/54/37
f 59/1/1 49/56/1 43/57/1 48/2/1
f 58/5/2 53/8/2 45/58/2 90/59/2
f 50/60/38 62/61/38 61/62/38 43/57/38
f 55/12/4 51/63/4 44/64/4 47/13/4
f 52/16/5 88/65/5 51/63/5 55/12/5
f 49/56/39 87/66/39 44/64/39 51/63/39 86/67/39 56/68/39
f 43/57/40 49/56/40 56/68/40 50/60/40
f 50/60/41 56/68/41 90/59/41 45/58/41
f 48/2/18 60/29/18 65/69/18 57/70/18
f 89/71/9 91/72/9 54/73/9 46/74/9
f 47/13/1 44/64/1 87/66/1 49/56/1 59/1/1
f 62/61/42 80/75/42 79/76/42 61/62/42
f 50/60/43 66/77/43 68/78/43 62/61/43
f 43/57/1 61/62/1 60/29/1 48/2/1
f 57/70/18 65/69/18 64/31/18 53/8/18
f 53/8/2 64/31/2 63/79/2 45/58/2
f 66/77/44 70/80/44 72/81/44 68/78/44
f 62/61/45 68/78/45 69/82/45 63/79/45
f 63/79/2 69/82/2 67/83/2 45/58/2
f 45/58/46 67/83/46 66/77/46 50/60/46
f 71/84/4 75/85/4 74/86/4 70/80/4
f 67/83/47 71/84/47 70/80/47 66/77/47
f 69/82/48 73/87/48 71/84/48 67/83/48
f 68/78/17 72/81/17 73/87/17 69/82/17
f 75/85/49 77/88/49 76/89/49 74/86/49
f 73/87/50 77/88/50 75/85/50 71/84/50
f 72/81/17 76/89/17 77/88/17 73/87/17
f 70/80/51 74/86/51 76/89/51 72/81/51
f 60/29/18 78/43/18 81/44/18 65/69/18
f 62/61/17 92/90/17 80/75/17
f 78/43/21 79/76/21 80/75/21 81/44/21
f 85/91/17 82/92/17 83/93/17 84/94/17
f 80/75/17 92/90/17 95/49/17 81/44/17
f 63/79/52 93/95/52 92/90/52 62/61/52
f 65/69/17 81/44/17 95/49/17
f 65/69/18 95/49/18 94/51/18 64/31/18
f 64/31/2 94/51/2 93/95/2 63/79/2
f 61/62/53 79/76/53 78/43/53 60/29/53
f 51/63/54 88/65/54 86/67/54
f 90/59/55 56/68/55 86/67/55 88/65/55
f 46/74/26 88/65/26 52/16/26 89/71/26
f 89/71/56 52/16/56 58/5/56 91/72/56
f 91/72/28 58/5/28 90/59/28 54/73/28
f 54/73/57 90/59/57 88/65/57 46/74/57
f 96/96/58 92/90/58 93/95/58 97/97/58
f 97/97/31 93/95/31 94/51/31 98/98/31
f 99/99/32 95/49/32 92/90/32 96/96/32
f 98/98/59 94/51/59 95/49/59 99/99/59
f 82/92/37 96/96/37 97/97/37 83/93/37
f 83/93/35 97/97/35 98/98/35 84/94/35
f 85/91/36 99/99/36 96/96/36 82/92/36
f 84/94/34 98/98/34 99/99/34 85/91/34
l 31 32
l 86 87
