# Blender v2.79 (sub 0) OBJ File: 'Ship.blend'
# www.blender.org
o Cube
v -1.274563 -0.460789 0.519870
v -0.439173 -0.460789 -2.351373
v -1.275866 1.000000 0.475442
v -0.557719 0.187332 -1.973231
v -1.027532 -0.460789 -0.739524
v -1.327621 0.000000 0.475442
v -0.439173 0.000000 -2.351373
v -0.900070 0.932686 -0.775295
v -1.012512 0.000000 -0.739524
v -1.298248 -0.460789 2.609975
v -1.373760 -0.000000 2.637833
v -1.182631 1.000000 2.637833
v -1.594263 0.436815 0.777934
v -1.367211 1.000000 0.777934
v -1.594263 0.436815 2.482994
v -1.367211 1.000000 2.482994
v -2.516276 0.291150 0.999999
v -2.516276 0.596117 0.999999
v -2.516276 0.291149 2.482994
v -2.516276 0.596117 2.482994
v -3.152696 -0.000000 0.999999
v -3.152697 0.101607 0.999999
v -3.152697 -0.000000 2.482994
v -3.152697 0.101607 2.482994
v -0.834062 -0.185292 3.084433
v -0.834062 0.174278 3.450976
v -0.608646 0.371420 3.760431
v -0.608646 0.797686 3.760431
v -0.227655 0.797686 3.760431
v -0.227655 0.371420 3.760431
v -0.716823 0.000000 -2.079357
v -0.716823 -0.460789 -2.081832
v -0.617823 0.177102 -2.076815
v -0.077499 0.187332 -1.973230
v -1.000000 1.000000 -0.739524
v -0.077500 0.932686 -0.775294
v -0.834062 0.174278 3.450976
v -0.834062 1.000000 3.450976
v -0.658965 0.321102 3.625772
v -0.658965 0.848004 3.625772
v -0.177337 0.848004 3.625772
v -0.177337 0.321102 3.625772
v 1.274563 -0.460789 0.519870
v 0.439173 -0.460789 -2.351373
v 1.275866 1.000000 0.475442
v 0.557719 0.187332 -1.973231
v 0.000000 -0.460789 -2.351373
v 0.000000 -0.460789 0.519870
v 1.027532 -0.460789 -0.739524
v 1.327621 0.000000 0.475442
v 0.439173 0.000000 -2.351373
v 0.000000 0.177102 -2.076815
v 0.000000 1.000000 0.504401
v 0.900070 0.932686 -0.775295
v 0.000000 0.000000 -2.351373
v 1.012512 0.000000 -0.739524
v 0.000000 0.000000 0.504401
v 0.000000 1.000000 -0.739523
v 0.000000 -0.460789 -0.739524
v 0.000000 -0.460789 2.642719
v 1.298248 -0.460789 2.609975
v 1.373760 -0.000000 2.637833
v 1.182631 1.000000 2.637833
v 0.000000 1.000000 2.690091
v 0.000000 -0.000000 2.679862
v 1.594263 0.436815 0.777934
v 1.367211 1.000000 0.777934
v 1.594263 0.436815 2.482994
v 1.367211 1.000000 2.482994
v 2.516276 0.291150 0.999999
v 2.516276 0.596117 0.999999
v 2.516276 0.291149 2.482994
v 2.516276 0.596117 2.482994
v 3.152696 -0.000000 0.999999
v 3.152697 0.101607 0.999999
v 3.152697 -0.000000 2.482994
v 3.152697 0.101607 2.482994
v 0.000000 -0.185292 3.084433
v 0.834062 -0.185292 3.084433
v 0.834062 0.174278 3.450976
v 0.000000 0.174278 3.450976
v 0.608646 0.371420 3.760431
v 0.608646 0.797686 3.760431
v 0.227655 0.797686 3.760431
v 0.227655 0.371420 3.760431
v 0.716823 0.000000 -2.079357
v 0.716823 -0.460789 -2.081832
v 0.617823 0.177102 -2.076815
v 0.077499 0.187332 -1.973230
v 1.000000 1.000000 -0.739524
v 0.077500 0.932686 -0.775294
v 0.834062 0.174278 3.450976
v 0.834062 1.000000 3.450976
v 0.000000 1.000000 3.450976
v 0.000000 0.174278 3.450976
v 0.658965 0.321102 3.625772
v 0.658965 0.848004 3.625772
v 0.177337 0.848004 3.625772
v 0.177337 0.321102 3.625772
vt 1.000000 0.000000
vt 0.000000 1.000000
vt 0.000000 0.000000
vt 1.000000 0.000000
vt 0.000000 1.000000
vt 0.000000 0.000000
vt 1.000000 0.000000
vt 0.000000 1.000000
vt 0.000000 0.000000
vt 0.000000 0.000000
vt 1.000000 1.000000
vt 0.000000 1.000000
vt 0.000000 0.000000
vt 1.000000 1.000000
vt 0.000000 1.000000
vt 0.933013 0.250000
vt 0.066987 0.250000
vt 0.066987 0.750000
vt 1.000000 0.000000
vt 0.000000 0.000000
vt 1.000000 0.000000
vt 0.000000 1.000000
vt 1.000000 0.000000
vt 0.000000 1.000000
vt 0.000000 0.000000
vt 0.975528 0.654508
vt 0.793893 0.095491
vt 0.206107 0.095492
vt 0.000000 0.000000
vt 1.000000 1.000000
vt 0.000000 1.000000
vt 1.000000 0.000000
vt 0.000000 1.000000
vt 0.000000 1.000000
vt 0.000000 0.000000
vt 1.000000 1.000000
vt 0.000000 1.000000
vt 1.000000 0.000000
vt 0.000000 1.000000
vt 0.000000 0.000000
vt 1.000000 0.000000
vt 0.000000 1.000000
vt 0.000000 0.000000
vt 1.000000 1.000000
vt 0.000000 1.000000
vt 0.000000 0.000000
vt 1.000000 1.000000
vt 0.000000 1.000000
vt 1.000000 0.000000
vt 0.000000 1.000000
vt 0.000000 0.000000
vt 1.000000 0.000000
vt 0.000000 1.000000
vt 0.000000 0.000000
vt 0.000000 0.000000
vt 1.000000 1.000000
vt 0.000000 1.000000
vt 0.000000 0.000000
vt 1.000000 1.000000
vt 0.000000 1.000000
vt 1.000000 0.000000
vt 0.000000 1.000000
vt 0.000000 0.000000
vt 1.000000 0.000000
vt 0.000000 0.000000
vt 0.000000 0.000000
vt 1.000000 1.000000
vt 0.000000 1.000000
vt 1.000000 0.000000
vt 0.000000 1.000000
vt 0.000000 0.000000
vt 1.000000 0.000000
vt 1.000000 1.000000
vt 1.000000 0.000000
vt 0.000000 1.000000
vt 0.000000 0.000000
vt 1.000000 0.000000
vt 0.000000 1.000000
vt 0.000000 0.000000
vt 0.000000 0.000000
vt 1.000000 1.000000
vt 0.000000 1.000000
vt 0.000000 1.000000
vt 0.000000 0.000000
vt 1.000000 1.000000
vt 0.000000 1.000000
vt 1.000000 0.000000
vt 0.000000 0.000000
vt 0.000000 0.000000
vt 1.000000 0.000000
vt 1.000000 1.000000
vt 1.000000 0.000000
vt 0.000000 0.000000
vt 1.000000 0.000000
vt 0.000000 0.000000
vt 1.000000 1.000000
vt 0.000000 1.000000
vt 1.000000 0.000000
vt 0.000000 1.000000
vt 0.000000 0.000000
vt 0.000000 0.000000
vt 0.000000 1.000000
vt 1.000000 0.000000
vt 0.000000 0.000000
vt 1.000000 0.000000
vt 0.000000 0.000000
vt 0.000000 0.000000
vt 0.000000 1.000000
vt 0.000000 0.000000
vt 0.000000 0.000000
vt 1.000000 1.000000
vt 0.000000 1.000000
vt 0.000000 1.000000
vt 0.000000 0.000000
vt 1.000000 0.000000
vt 0.000000 1.000000
vt 1.000000 0.000000
vt 0.000000 1.000000
vt 0.000000 0.000000
vt 0.000000 1.000000
vt 1.000000 0.000000
vt 0.000000 1.000000
vt 1.000000 0.000000
vt 0.000000 0.000000
vt 1.000000 1.000000
vt 1.000000 0.000000
vt 1.000000 1.000000
vt 1.000000 0.000000
vt 0.933013 0.250000
vt 0.933013 0.750000
vt 0.066987 0.750000
vt 1.000000 0.000000
vt 0.000000 0.000000
vt 0.000000 1.000000
vt 1.000000 0.000000
vt 0.000000 1.000000
vt 1.000000 0.000000
vt 0.000000 0.000000
vt 0.000000 1.000000
vt 1.000000 0.000000
vt 0.000000 0.000000
vt 0.206107 0.095492
vt 0.793893 0.095491
vt 0.000000 0.000000
vt 1.000000 1.000000
vt 1.000000 0.000000
vt 0.000000 1.000000
vt 1.000000 0.000000
vt 0.000000 1.000000
vt 0.000000 1.000000
vt 1.000000 0.000000
vt 0.000000 0.000000
vt 1.000000 1.000000
vt 0.000000 1.000000
vt 1.000000 0.000000
vt 0.000000 0.000000
vt 0.000000 1.000000
vt 1.000000 0.000000
vt 0.000000 0.000000
vt 1.000000 1.000000
vt 0.000000 0.000000
vt 1.000000 1.000000
vt 0.000000 1.000000
vt 1.000000 0.000000
vt 0.000000 0.000000
vt 0.000000 1.000000
vt 1.000000 0.000000
vt 0.000000 0.000000
vt 0.000000 0.000000
vt 1.000000 1.000000
vt 1.000000 0.000000
vt 0.000000 0.000000
vt 1.000000 1.000000
vt 1.000000 0.000000
vt 0.000000 1.000000
vt 1.000000 0.000000
vt 0.000000 0.000000
vt 0.000000 0.000000
vt 1.000000 1.000000
vt 1.000000 0.000000
vt 0.000000 0.000000
vt 1.000000 1.000000
vt 1.000000 0.000000
vt 0.000000 0.000000
vt 1.000000 1.000000
vt 1.000000 0.000000
vt 0.000000 1.000000
vt 1.000000 0.000000
vt 0.000000 0.000000
vt 1.000000 1.000000
vt 1.000000 0.000000
vt 0.000000 1.000000
vt 0.000000 1.000000
vt 1.000000 0.000000
vt 0.000000 0.000000
vt 0.000000 0.000000
vt 0.000000 0.000000
vt 1.000000 1.000000
vt 1.000000 0.000000
vt 1.000000 0.000000
vt 1.000000 1.000000
vt 0.000000 0.000000
vt 0.000000 0.000000
vt 1.000000 1.000000
vt 1.000000 0.000000
vt 1.000000 0.000000
vt 0.000000 0.000000
vt 0.000000 1.000000
vt 1.000000 0.000000
vt 0.000000 0.000000
vt 1.000000 0.000000
vt 1.000000 0.000000
vt 0.000000 0.000000
vt 0.000000 0.000000
vt 0.000000 1.000000
vt 1.000000 0.000000
vt 0.000000 0.000000
vt 0.000000 1.000000
vt 1.000000 0.000000
vt 0.000000 0.000000
vt 0.000000 0.000000
vt 1.000000 0.000000
vt 0.000000 0.000000
vt 1.000000 0.000000
vt 0.000000 0.000000
vt 1.000000 1.000000
vt 1.000000 0.000000
vt 0.000000 1.000000
vt 0.000000 0.000000
vt 0.000000 1.000000
vt 1.000000 0.000000
vt 0.000000 0.000000
vt 1.000000 1.000000
vt 1.000000 0.000000
vt 1.000000 1.000000
vt 1.000000 1.000000
vt 1.000000 1.000000
vt 0.500000 1.000000
vt 0.933013 0.750000
vt 0.500000 0.000000
vt 1.000000 1.000000
vt 1.000000 1.000000
vt 1.000000 1.000000
vt 0.024472 0.654509
vt 0.500000 1.000000
vt 1.000000 0.000000
vt 1.000000 1.000000
vt 1.000000 1.000000
vt 1.000000 1.000000
vt 1.000000 1.000000
vt 1.000000 1.000000
vt 1.000000 1.000000
vt 1.000000 0.000000
vt 1.000000 0.000000
vt 1.000000 1.000000
vt 1.000000 1.000000
vt 1.000000 0.000000
vt 1.000000 1.000000
vt 1.000000 1.000000
vt 1.000000 1.000000
vt 1.000000 1.000000
vt 1.000000 1.000000
vt 1.000000 0.000000
vt 1.000000 1.000000
vt 1.000000 0.000000
vt 1.000000 0.000000
vt 1.000000 0.000000
vt 1.000000 1.000000
vt 1.000000 1.000000
vt 1.000000 1.000000
vt 1.000000 1.000000
vt 1.000000 1.000000
vt 1.000000 1.000000
vt 0.000000 1.000000
vt 0.500000 1.000000
vt 0.066987 0.250000
vt 0.500000 0.000000
vt 1.000000 1.000000
vt 1.000000 1.000000
vt 1.000000 1.000000
vt 1.000000 1.000000
vt 0.024472 0.654509
vt 0.000000 1.000000
vt 1.000000 1.000000
vt 1.000000 1.000000
vt 1.000000 1.000000
vt 1.000000 1.000000
vt 0.000000 1.000000
vt 0.000000 1.000000
vt 1.000000 1.000000
vt 1.000000 1.000000
vt 0.000000 1.000000
vt 0.000000 1.000000
vt 0.000000 1.000000
vt 0.000000 1.000000
vt 1.000000 1.000000
vt 1.000000 1.000000
vt 1.000000 1.000000
vt 0.000000 1.000000
vt 0.000000 1.000000
vt 1.000000 1.000000
vt 1.000000 1.000000
vt 0.000000 1.000000
vn 0.0000 -1.0000 0.0000
vn 0.0000 1.0000 0.0000
vn -0.9930 -0.1164 -0.0212
vn 0.0000 0.0000 -1.0000
vn 0.0000 0.8403 -0.5421
vn -0.6965 0.0039 -0.7175
vn -0.9729 -0.1304 -0.1908
vn -0.9668 0.0500 -0.2507
vn 0.0000 0.8491 -0.5283
vn -0.6362 -0.5508 0.5403
vn -0.8590 -0.5117 -0.0183
vn 0.1561 -0.9877 0.0000
vn -0.4522 0.0864 0.8877
vn -0.8931 0.3601 -0.2697
vn -0.2188 0.0882 -0.9718
vn -0.3316 0.9434 -0.0000
vn 0.0000 -0.0000 1.0000
vn -1.0000 0.0000 -0.0000
vn -0.6136 0.7896 -0.0000
vn 0.4160 -0.9094 0.0000
vn 0.0000 -0.7139 0.7003
vn -0.9191 0.0000 0.3940
vn -0.0129 -0.8592 0.5115
vn -0.6494 0.3726 -0.6629
vn -0.9595 0.0120 -0.2816
vn 0.0000 0.9952 -0.0983
vn -0.5069 0.7341 -0.4518
vn 0.0000 0.4693 -0.8831
vn 0.4155 0.8229 -0.3876
vn -0.7065 0.0000 0.7077
vn 0.0000 0.7546 0.6562
vn 0.0000 -0.7657 0.6432
vn 0.7020 -0.0000 0.7122
vn -0.9367 0.0000 0.3500
vn 0.0000 0.9367 0.3500
vn 0.0000 -0.9367 0.3500
vn 0.9367 0.0000 0.3500
vn 0.9930 -0.1164 -0.0212
vn 0.9765 0.0012 -0.2155
vn 0.9729 -0.1304 -0.1908
vn 0.9668 0.0500 -0.2507
vn 0.6606 -0.1527 0.7350
vn 0.8590 -0.5117 -0.0183
vn -0.1561 -0.9877 0.0000
vn 0.4522 0.0864 0.8877
vn 0.7222 0.0374 -0.6906
vn 0.2188 0.0882 -0.9718
vn 0.3316 0.9434 0.0000
vn 1.0000 -0.0000 -0.0000
vn 0.6136 0.7896 -0.0000
vn -0.4160 -0.9094 0.0000
vn 0.8379 0.1601 0.5218
vn 0.0129 -0.8592 0.5115
vn 0.6494 0.3726 -0.6629
vn 0.9595 0.0120 -0.2816
vn 0.4426 0.7614 -0.4737
vn -0.4828 0.7988 -0.3590
vn 0.7065 0.0000 0.7077
vn -0.7020 -0.0000 0.7122
vn -0.9869 -0.1610 -0.0112
vn -0.9737 0.0317 -0.2254
vn -0.6998 0.0000 -0.7143
vn -0.9765 0.0012 -0.2155
vn -0.9675 0.0315 -0.2509
vn -0.9751 0.0122 -0.2214
vn -0.6606 -0.1527 0.7350
vn -0.8927 -0.4506 -0.0000
vn -0.6221 0.2508 0.7416
vn -0.7222 0.0374 -0.6906
vn -0.2342 -0.0000 -0.9722
vn -0.8379 0.1601 0.5218
vn 0.0000 -0.8485 0.5292
vn -0.8560 0.4812 -0.1889
vn -0.4426 0.7614 -0.4737
vn 0.4828 0.7988 -0.3590
vn 0.9869 -0.1610 -0.0112
vn 0.9737 0.0317 -0.2254
vn 0.6965 0.0039 -0.7175
vn 0.6998 0.0000 -0.7143
vn 0.9675 0.0315 -0.2509
vn 0.9751 0.0122 -0.2214
vn 0.6362 -0.5508 0.5403
vn 0.8927 -0.4506 -0.0000
vn 0.6221 0.2508 0.7416
vn 0.8931 0.3601 -0.2697
vn 0.2342 -0.0000 -0.9722
vn 0.9191 0.0000 0.3940
vn 0.8560 0.4812 -0.1889
vn 0.5069 0.7341 -0.4518
vn -0.4155 0.8229 -0.3876
s off
f 48/1/1 5/2/1 59/3/1
f 35/4/2 53/5/2 58/6/2
f 1/7/3 11/8/3 6/9/3
f 55/10/4 2/11/4 7/12/4
f 52/13/5 7/14/5 33/15/5
f 31/16/6 2/17/6 32/18/6
f 6/19/7 5/2/7 1/20/7
f 3/21/8 9/22/8 6/9/8
f 4/23/9 36/24/9 34/25/9
f 59/26/1 5/27/1 32/28/1
f 11/29/10 25/30/10 26/31/10
f 11/32/11 13/33/11 6/9/11
f 48/1/1 10/34/1 1/20/1
f 53/35/2 12/36/2 64/37/2
f 15/38/12 17/39/12 13/40/12
f 12/41/13 15/42/13 11/29/13
f 12/43/2 14/44/2 16/45/2
f 3/46/14 13/47/14 14/48/14
f 17/49/4 22/50/4 18/51/4
f 13/52/15 18/53/15 14/54/15
f 16/55/16 18/56/16 20/57/16
f 15/58/17 20/59/17 19/60/17
f 21/61/18 24/62/18 22/63/18
f 18/64/19 24/62/19 20/65/19
f 19/66/17 24/67/17 23/68/17
f 19/69/20 21/70/20 17/71/20
f 11/29/17 26/72/17 37/73/17
f 81/74/21 25/75/21 78/76/21
f 29/77/17 27/78/17 30/79/17
f 26/80/17 95/81/17 37/82/17
f 12/43/22 37/73/22 38/83/22
f 64/84/2 38/85/2 94/86/2
f 60/87/23 25/75/23 10/88/23
f 7/89/24 31/90/24 33/91/24
f 33/92/25 9/22/25 35/93/25
f 34/94/26 33/15/26 4/95/26
f 34/25/27 58/96/27 52/97/27
f 8/98/28 58/99/28 36/100/28
f 8/101/29 33/91/29 35/102/29
f 40/103/30 37/82/30 39/104/30
f 41/105/31 38/83/31 40/106/31
f 42/107/32 37/73/32 95/108/32
f 41/109/33 95/81/33 94/86/33
f 27/110/34 40/111/34 39/112/34
f 29/77/35 40/113/35 28/114/35
f 27/115/36 42/116/36 30/79/36
f 30/117/37 41/118/37 29/119/37
f 49/120/1 48/1/1 59/3/1
f 53/5/2 90/121/2 58/6/2
f 62/122/38 43/123/38 50/124/38
f 55/10/4 44/125/4 47/126/4
f 52/13/5 51/127/5 55/128/5
f 86/129/39 56/130/39 87/131/39
f 49/120/40 50/132/40 43/133/40
f 56/134/41 45/135/41 50/124/41
f 60/136/18 57/137/18 48/138/18
f 91/139/9 46/140/9 89/141/9
f 87/142/1 49/143/1 59/26/1
f 62/144/42 79/145/42 61/146/42
f 66/147/43 62/148/43 50/124/43
f 61/149/1 48/1/1 43/133/1
f 65/150/18 53/151/18 57/152/18
f 53/35/2 63/153/2 45/135/2
f 70/154/44 68/155/44 66/156/44
f 68/157/45 63/158/45 62/144/45
f 63/159/2 67/160/2 45/135/2
f 45/161/46 66/162/46 50/132/46
f 75/163/4 70/164/4 71/165/4
f 71/166/47 66/167/47 67/168/47
f 69/169/48 71/170/48 67/171/48
f 68/172/17 73/173/17 69/174/17
f 77/175/49 74/176/49 75/177/49
f 73/178/50 75/179/50 71/180/50
f 72/181/17 77/182/17 73/183/17
f 70/184/51 76/185/51 72/186/51
f 78/187/18 65/188/18 60/189/18
f 62/144/17 92/190/17 80/191/17
f 79/192/21 81/74/21 78/76/21
f 82/193/17 84/194/17 85/195/17
f 80/196/17 95/81/17 81/74/17
f 63/159/52 92/190/52 62/148/52
f 65/197/17 81/198/17 95/199/17
f 95/108/18 64/200/18 65/197/18
f 64/84/2 93/201/2 63/158/2
f 79/192/53 60/87/53 61/202/53
f 51/203/54 88/204/54 86/205/54
f 56/134/55 88/206/55 90/207/55
f 88/208/26 89/209/26 46/210/26
f 89/141/56 58/96/56 91/211/56
f 58/99/28 54/212/28 91/213/28
f 54/214/57 88/204/57 46/140/57
f 92/215/58 97/216/58 96/217/58
f 93/218/31 98/219/31 97/220/31
f 99/221/32 92/190/32 96/222/32
f 98/223/59 95/81/59 99/224/59
f 82/225/37 97/226/37 83/227/37
f 97/228/35 84/194/35 83/229/35
f 99/230/36 82/231/36 85/195/36
f 84/232/34 99/233/34 85/234/34
f 48/1/1 1/235/1 5/2/1
f 35/4/2 3/236/2 53/5/2
f 1/7/60 10/237/60 11/8/60
f 55/10/4 47/126/4 2/11/4
f 52/13/5 55/128/5 7/14/5
f 32/18/61 5/238/61 9/239/61
f 31/16/62 7/240/62 2/17/62
f 32/18/63 9/239/63 31/16/63
f 6/19/64 9/241/64 5/2/64
f 3/21/65 35/242/65 9/22/65
f 4/23/9 8/243/9 36/24/9
f 2/244/1 47/245/1 32/28/1
f 47/245/1 59/26/1 32/28/1
f 11/29/66 10/246/66 25/30/66
f 11/32/67 15/247/67 13/33/67
f 48/1/1 60/248/1 10/34/1
f 53/35/2 3/21/2 12/36/2
f 15/38/12 19/249/12 17/39/12
f 12/41/68 16/250/68 15/42/68
f 12/43/2 3/21/2 14/44/2
f 3/46/69 6/19/69 13/47/69
f 17/49/4 21/251/4 22/50/4
f 13/52/70 17/252/70 18/53/70
f 16/55/16 14/253/16 18/56/16
f 15/58/17 16/254/17 20/59/17
f 21/61/18 23/255/18 24/62/18
f 18/64/19 22/256/19 24/62/19
f 19/66/17 20/257/17 24/67/17
f 19/69/20 23/255/20 21/70/20
f 81/74/21 26/258/21 25/75/21
f 29/77/17 28/259/17 27/78/17
f 26/80/17 81/74/17 95/81/17
f 12/43/71 11/32/71 37/73/71
f 64/84/2 12/41/2 38/85/2
f 60/87/72 78/260/72 25/75/72
f 33/92/73 31/261/73 9/22/73
f 34/94/26 52/262/26 33/15/26
f 34/25/74 36/263/74 58/96/74
f 8/98/28 35/242/28 58/99/28
f 8/101/75 4/23/75 33/91/75
f 40/103/30 38/85/30 37/82/30
f 41/105/31 94/264/31 38/83/31
f 42/107/32 39/265/32 37/73/32
f 41/109/33 42/266/33 95/81/33
f 27/110/34 28/267/34 40/111/34
f 29/77/35 41/268/35 40/113/35
f 27/115/36 39/269/36 42/116/36
f 30/117/37 42/270/37 41/118/37
f 49/120/1 43/271/1 48/1/1
f 53/5/2 45/272/2 90/121/2
f 62/122/76 61/273/76 43/123/76
f 55/10/4 51/274/4 44/125/4
f 52/13/5 88/208/5 51/127/5
f 56/130/77 49/275/77 87/131/77
f 87/131/78 44/276/78 86/129/78
f 44/276/79 51/277/79 86/129/79
f 49/120/80 56/278/80 50/132/80
f 56/134/81 90/279/81 45/135/81
f 60/136/18 65/280/18 57/137/18
f 91/139/9 54/281/9 46/140/9
f 59/26/1 47/245/1 87/142/1
f 47/245/1 44/282/1 87/142/1
f 62/144/82 80/283/82 79/145/82
f 66/147/83 68/284/83 62/148/83
f 61/149/1 60/248/1 48/1/1
f 65/150/18 64/285/18 53/151/18
f 53/35/2 64/37/2 63/153/2
f 70/154/44 72/286/44 68/155/44
f 68/157/84 69/287/84 63/158/84
f 63/159/2 69/288/2 67/160/2
f 45/161/85 67/289/85 66/162/85
f 75/163/4 74/290/4 70/164/4
f 71/166/86 70/291/86 66/167/86
f 69/169/48 73/292/48 71/170/48
f 68/172/17 72/293/17 73/173/17
f 77/175/49 76/185/49 74/176/49
f 73/178/50 77/175/50 75/179/50
f 72/181/17 76/294/17 77/182/17
f 70/184/51 74/295/51 76/185/51
f 78/187/18 81/198/18 65/188/18
f 79/192/21 80/296/21 81/74/21
f 82/193/17 83/297/17 84/194/17
f 80/196/17 92/215/17 95/81/17
f 63/159/87 93/218/87 92/190/87
f 95/108/18 94/264/18 64/200/18
f 64/84/2 94/86/2 93/201/2
f 79/192/72 78/260/72 60/87/72
f 56/134/88 86/298/88 88/206/88
f 88/208/26 52/262/26 89/209/26
f 89/141/89 52/97/89 58/96/89
f 58/99/28 90/279/28 54/212/28
f 54/214/90 90/299/90 88/204/90
f 92/215/58 93/201/58 97/216/58
f 93/218/31 94/264/31 98/219/31
f 99/221/32 95/108/32 92/190/32
f 98/223/59 94/86/59 95/81/59
f 82/225/37 96/300/37 97/226/37
f 97/228/35 98/301/35 84/194/35
f 99/230/36 96/302/36 82/231/36
f 84/232/34 98/303/34 99/233/34
